<?xml version="1.0" encoding="UTF-8" standalone="no"?>
<!-- Created with Inkscape (http://www.inkscape.org/) -->

<svg
   xmlns:dc="http://purl.org/dc/elements/1.1/"
   xmlns:cc="http://creativecommons.org/ns#"
   xmlns:rdf="http://www.w3.org/1999/02/22-rdf-syntax-ns#"
   xmlns:svg="http://www.w3.org/2000/svg"
   xmlns="http://www.w3.org/2000/svg"
   xmlns:sodipodi="http://sodipodi.sourceforge.net/DTD/sodipodi-0.dtd"
   xmlns:inkscape="http://www.inkscape.org/namespaces/inkscape"
   version="1.0"
   width="1897.3"
   height="456.5"
   viewBox="0 0 1897.282 456.502"
   id="Layer_2"
   xml:space="preserve"
   sodipodi:docname="system 3.svg"
   inkscape:version="0.92.2 (5c3e80d, 2017-08-06)"><sodipodi:namedview
     pagecolor="#ffffff"
     bordercolor="#666666"
     borderopacity="1"
     objecttolerance="10"
     gridtolerance="10"
     guidetolerance="10"
     inkscape:pageopacity="0"
     inkscape:pageshadow="2"
     inkscape:window-width="1920"
     inkscape:window-height="1017"
     id="namedview31"
     showgrid="false"
     showguides="false"
     inkscape:zoom="0.35355339"
     inkscape:cx="2167.7588"
     inkscape:cy="218.24669"
     inkscape:window-x="-8"
     inkscape:window-y="-8"
     inkscape:window-maximized="1"
     inkscape:current-layer="Layer_2" /><defs
     id="defs32" /><metadata
     id="metadata272"><rdf:RDF><cc:Work
         rdf:about=""><dc:format>image/svg+xml</dc:format><dc:type
           rdf:resource="http://purl.org/dc/dcmitype/StillImage" /><dc:title></dc:title></cc:Work></rdf:RDF></metadata><g
     id="g201"
     transform="matrix(0.98885572,0,0,0.96205383,1.1926619,6.9010299)"><path
       style="fill:#9e9e9e;stroke-width:0.65138"
       d="M -2.3080957,229.75276 V -7.4263144 H 266.88956 536.08722 V 229.75276 466.93184 H 266.88956 -2.3080957 Z M 279.34626,407.64203 c 0.29834,-0.28703 2.9326,-10.28886 5.85391,-22.22631 2.92131,-11.93745 5.50614,-22.02668 5.74407,-22.42052 0.23794,-0.39385 1.37115,-0.908 2.51827,-1.14257 1.14711,-0.23458 3.53171,-0.89776 5.2991,-1.47376 l 3.21345,-1.04726 16.14409,16.97174 16.14408,16.97173 6.72502,-3.57104 c 7.42561,-3.94305 18.06092,-10.53704 19.13968,-11.86677 0.50924,-0.6277 -0.94446,-6.71543 -5.51562,-23.09805 l -6.20709,-22.2457 4.30237,-4.40136 4.30238,-4.40137 21.11218,6.15264 c 11.61171,3.38395 21.46246,6.28928 21.89055,6.4563 1.48238,0.57831 15.63988,-23.46122 15.64676,-26.56829 0.002,-0.76489 -6.24967,-7.49998 -16.14081,-17.38976 l -16.14357,-16.14135 1.58879,-5.48203 c 0.87384,-3.01512 1.74313,-5.63992 1.93178,-5.8329 0.18863,-0.19299 9.95613,-2.81289 21.70553,-5.822 11.7494,-3.00912 21.63655,-5.75144 21.97145,-6.09404 0.66395,-0.67923 0.86406,-28.83426 0.21719,-30.55876 -0.28264,-0.75348 -6.34458,-2.56261 -21.76971,-6.49696 -11.75791,-2.99897 -21.7124,-5.78149 -22.12112,-6.18337 -1.06549,-1.04766 -3.48671,-10.33209 -2.93775,-11.26511 0.25344,-0.43075 7.48859,-7.70565 16.07812,-16.16645 9.86311,-9.71529 15.61733,-15.85436 15.61733,-16.66184 0,-2.66746 -12.59541,-24.91813 -14.94129,-26.39481 -0.83755,-0.52723 -5.99067,0.73785 -21.91808,5.38087 -11.4527,3.33857 -21.25714,6.07014 -21.78764,6.07014 -0.53051,0 -2.68213,-1.77562 -4.78137,-3.9458 l -3.81682,-3.94581 6.20623,-22.24261 c 5.73092,-20.53913 6.12754,-22.331558 5.17876,-23.404069 -2.48423,-2.8082 -23.96327,-15.236759 -25.66109,-14.848444 -0.47553,0.10876 -7.58743,7.31312 -15.80421,16.009686 -8.21679,8.696567 -15.41288,16.052297 -15.99132,16.346057 -1.23301,0.62619 -10.22047,-1.75028 -11.34851,-3.00079 -0.41054,-0.45512 -3.13259,-10.66061 -6.04898,-22.678876 -5.09328,-20.989037 -5.36774,-21.868128 -6.95447,-22.275536 -2.04038,-0.523882 -27.19562,-0.556811 -28.51891,-0.03736 -0.65651,0.257722 -2.64537,7.296156 -6.30161,22.300987 -2.93829,12.058435 -5.54082,22.222625 -5.78339,22.587095 -0.24258,0.36448 -2.90441,1.3384 -5.91517,2.16428 l -5.47412,1.50161 -15.77833,-16.534606 C 201.53829,89.594852 194.02836,82.15886 193.52765,82.16446 c -2.57524,0.02879 -24.85231,13.543999 -25.59704,15.529386 -0.21225,0.56585 2.25986,10.491544 5.4936,22.057094 3.23373,11.56558 5.87951,21.56347 5.87951,22.21756 0,1.52246 -7.07886,8.72457 -8.57526,8.72457 -0.62246,0 -10.23957,-2.66827 -21.37137,-5.92948 -11.13179,-3.26121 -20.69357,-5.92947 -21.2484,-5.92947 -1.27372,0 -7.51472,9.87017 -12.39066,19.5959 l -3.71372,7.40753 16.3887,16.3387 16.38871,16.33869 -1.50688,5.73625 c -1.4719,5.60314 -1.56079,5.75083 -3.83044,6.36419 -1.27796,0.34537 -11.20458,2.89463 -22.05915,5.66504 l -19.735573,5.03711 -0.389847,1.99407 c -0.507154,2.59413 -0.506832,25.44297 4.06e-4,28.03749 l 0.39024,1.99611 21.345214,5.40894 c 13.93327,3.53074 21.6808,5.79515 22.31166,6.52116 0.53154,0.61172 1.5049,3.3243 2.16301,6.02795 l 1.19658,4.91572 -10.8572,10.88847 c -5.97146,5.98866 -13.2481,13.22537 -16.17031,16.08158 -2.92222,2.8562 -5.31312,5.57369 -5.31312,6.03886 0,2.08408 12.27829,23.95313 14.6431,26.08107 1.03762,0.93368 2.93502,0.49169 22.06568,-5.14002 11.51174,-3.38884 21.35674,-6.17094 21.87778,-6.18245 1.41608,-0.0313 8.39085,7.309 8.39085,8.83055 0,0.72388 -2.67466,10.91839 -5.94368,22.65444 l -5.94369,21.33829 1.78439,1.57018 c 2.20322,1.93874 14.20717,9.26282 20.46716,12.48783 l 4.64221,2.39157 3.36436,-3.51714 c 1.85041,-1.93442 8.80514,-9.29837 15.45497,-16.36433 6.64983,-7.06596 12.43866,-13.05933 12.86407,-13.3186 0.92088,-0.56124 9.99618,1.91453 11.0165,3.00534 0.3911,0.41812 3.10731,10.54385 6.03601,22.50163 2.9287,11.95777 5.45723,21.88965 5.61895,22.07083 1.06983,1.19857 29.43584,1.20315 30.68129,0.005 z m -30.20206,-82.9303 c -35.74051,-6.68391 -62.66584,-33.73011 -70.26678,-70.58223 -1.60469,-7.78013 -1.60812,-25.16494 -0.006,-32.85902 2.66994,-12.82609 6.71756,-22.83077 13.32525,-32.93666 12.59127,-19.25724 32.95407,-33.09861 56.01698,-38.07686 7.61848,-1.64449 24.5822,-1.64449 32.20068,0 34.71646,7.49372 60.45797,33.21232 68.35654,68.29568 1.8075,8.02842 2.28597,24.06429 0.96348,32.29054 -3.07872,19.1505 -10.83736,34.99086 -23.56085,48.10283 -7.42203,7.64865 -13.0685,11.99342 -21.33182,16.41418 -13.42044,7.17973 -23.62442,9.87677 -38.91766,10.28644 -8.12544,0.21766 -11.67335,0.02 -16.77934,-0.9349 z"
       id="path207"
       inkscape:connector-curvature="0" /><path
       style="fill:#6c6c6c;stroke-width:0.65138"
       d="M -2.3080957,229.75276 V -7.4263144 H 266.88956 536.08722 V 229.75276 466.93184 H 266.88956 -2.3080957 Z M 280.10542,408.83157 c 0.24303,-0.24891 2.89351,-10.47129 5.88996,-22.71639 2.99645,-12.24509 5.53861,-22.35641 5.64923,-22.46959 0.11063,-0.11318 2.44947,-0.83099 5.19741,-1.59516 l 4.99627,-1.38938 6.81994,7.18195 c 19.55256,20.59042 24.86576,25.95862 25.69263,25.95862 2.72557,0 26.16931,-13.9913 26.95546,-16.08711 0.19864,-0.52957 -2.27138,-10.39881 -5.48892,-21.93164 -3.21755,-11.53283 -5.85009,-21.54742 -5.85009,-22.25464 0,-1.52904 6.28369,-8.24501 7.71431,-8.24501 0.54789,0 10.48961,2.77793 22.09271,6.17319 l 21.09655,6.17318 1.61574,-1.96438 c 3.32859,-4.04682 14.45419,-24.31342 14.46086,-26.34219 0.001,-0.46199 -7.29391,-8.10933 -16.21206,-16.99409 l -16.21482,-16.15409 1.17634,-4.59907 c 0.64699,-2.52949 1.49422,-4.95334 1.88276,-5.38633 0.38853,-0.43299 10.41348,-3.26761 22.27766,-6.29915 l 21.57125,-5.51189 0.53194,-3.58331 c 0.76119,-5.12755 0.25323,-28.74457 -0.63785,-29.65615 -0.39323,-0.40228 -10.34099,-3.19672 -22.10614,-6.20987 -11.76515,-3.01315 -21.60397,-5.72818 -21.86402,-6.03338 -0.96585,-1.13354 -2.71738,-9.36593 -2.18412,-10.26563 0.2979,-0.50261 7.56944,-7.84908 16.15897,-16.32547 8.58953,-8.4764 15.61733,-15.8426 15.61733,-16.36936 0,-2.4603 -13.02298,-25.45642 -15.6789,-27.68594 -0.94963,-0.79718 -3.86846,-0.10184 -22.79699,5.43079 l -21.70792,6.34503 -3.39679,-3.43179 c -1.89179,-1.91128 -3.3959,-4.02558 -3.39476,-4.77196 0.001,-0.73709 2.60937,-10.66948 5.79612,-22.07198 3.18674,-11.4025 5.79407,-21.200855 5.79407,-21.774137 0,-1.551257 -13.84195,-10.516691 -24.05395,-15.579733 l -3.76752,-1.867917 -15.93606,16.780017 -15.93607,16.78001 -4.92517,-1.18782 c -2.70885,-0.65331 -5.11866,-1.5081 -5.35515,-1.89955 -0.23649,-0.39145 -2.82014,-10.47872 -5.74145,-22.416172 -2.92131,-11.937447 -5.64245,-22.043107 -6.04698,-22.457017 -1.03143,-1.055348 -30.57915,-1.055348 -31.61105,0 -0.40473,0.41391 -3.14572,10.600079 -6.09111,22.635916 -2.94538,12.035833 -5.59935,22.106453 -5.89769,22.379133 -0.29834,0.27269 -2.69125,1.05176 -5.31755,1.73125 l -4.77512,1.23544 -15.97477,-16.790602 -15.97476,-16.790605 -7.36223,3.801084 c -8.95085,4.621289 -20.36947,12.142462 -20.36947,13.416891 0,0.511958 2.75173,10.772922 6.11495,22.802142 l 6.11495,21.87131 -3.05589,3.1983 c -1.68073,1.75907 -3.50264,3.44985 -4.04868,3.7573 -0.6529,0.36762 -8.25966,-1.56988 -22.21846,-5.65922 -11.67412,-3.42002 -21.61863,-6.13976 -22.09891,-6.04388 -1.15262,0.23013 -8.90711,12.90023 -13.14804,21.48264 l -3.36709,6.81403 16.42235,16.35617 16.42234,16.35617 -1.30704,5.15953 -1.30704,5.15953 -21.70178,5.618 c -11.93598,3.08991 -22.070637,5.99531 -22.52146,6.45646 -1.192964,1.22029 -1.178596,31.30347 0.01552,32.52823 0.459369,0.47115 10.5875,3.37666 22.50695,6.4567 l 21.67175,5.60006 1.30659,5.19047 1.3066,5.19047 -16.4074,16.34057 -16.40739,16.34057 4.03034,8.11634 c 5.43699,10.94906 11.47901,20.30472 13.11311,20.30472 0.69176,0 10.36558,-2.66827 21.49737,-5.92948 11.1318,-3.26121 20.78773,-5.92948 21.45763,-5.92948 1.47879,0 8.084,6.97355 7.66802,8.09564 -1.51829,4.09561 -12.09014,43.57829 -11.8441,44.2342 0.72525,1.93345 24.85542,16.18856 27.403,16.18856 0.63311,0 3.15076,-2.14943 5.59478,-4.77652 2.44403,-2.62709 9.45507,-10.07318 15.58012,-16.54687 l 11.13644,-11.77034 4.49316,1.1922 c 2.47124,0.6557 4.80602,1.38999 5.18841,1.63176 0.38238,0.24175 3.10735,10.29627 6.05549,22.34335 2.94814,12.04709 5.60435,22.14323 5.90269,22.43588 0.29835,0.29264 1.26696,0.67913 2.15248,0.85886 2.41291,0.48976 29.44981,0.1844 29.96021,-0.33837 z m -31.57024,-85.23302 c -12.11543,-2.31229 -26.02434,-8.43042 -35.42075,-15.58056 -17.5743,-13.37307 -29.7704,-33.7404 -33.56139,-56.04711 -1.4265,-8.39367 -0.92878,-26.21919 0.94405,-33.81094 5.58755,-22.64986 17.77686,-40.76355 35.6709,-53.00806 11.10258,-7.59726 21.77202,-11.96611 34.562,-14.15221 9.46131,-1.61716 24.19374,-1.06049 33.27995,1.2575 49.29742,12.57628 77.20348,64.47225 61.08406,113.59599 -7.63361,23.26331 -26.01968,43.06149 -48.82216,52.57186 -10.94578,4.56522 -16.67421,5.68533 -30.3483,5.93416 -8.92092,0.16235 -13.63218,-0.0437 -17.38836,-0.76063 z"
       id="path205"
       inkscape:connector-curvature="0" /><path
       style="fill:#5b5b5b;stroke-width:0.65138"
       d="M -2.3080957,229.75276 V -7.4263144 H 266.88956 536.08722 V 229.75276 466.93184 H 266.88956 -2.3080957 Z m 281.2022357,180.19162 2.02237,-0.3634 5.38379,-22.11344 c 2.96108,-12.1624 5.54803,-22.38712 5.74878,-22.72161 0.20075,-0.3345 2.37429,-1.18826 4.8301,-1.89725 l 4.46511,-1.28906 6.74355,7.06208 c 25.07142,26.25562 25.34067,26.51886 26.70353,26.10802 2.53354,-0.76374 14.88299,-7.69694 21.13307,-11.86447 4.58457,-3.05698 6.27913,-4.55299 6.27913,-5.54342 0,-0.74609 -2.60826,-10.6739 -5.79612,-22.06181 -3.18787,-11.38791 -5.79613,-21.17744 -5.79613,-21.75453 0,-0.57708 1.4516,-2.55785 3.22577,-4.4017 l 3.22578,-3.35245 20.76373,6.10813 c 11.42005,3.35946 21.40035,6.25042 22.17843,6.42433 1.20198,0.26867 2.08183,-0.71929 5.85144,-6.57042 4.75769,-7.3848 11.73226,-20.78934 11.73226,-22.54842 0,-0.92267 -8.42263,-9.58854 -27.62612,-28.42395 l -4.76365,-4.67233 1.27007,-4.83976 1.27007,-4.83977 21.95848,-5.63896 c 12.07717,-3.10143 22.19268,-5.87855 22.47892,-6.17138 0.7214,-0.73799 1.07781,-26.31196 0.42863,-30.75553 l -0.52939,-3.62357 -22.10092,-5.7011 c -12.15551,-3.13561 -22.18226,-5.80387 -22.28167,-5.92948 -0.0994,-0.1256 -0.67805,-2.29509 -1.28587,-4.82109 l -1.10512,-4.59271 6.00007,-5.93293 c 18.93763,-18.72569 26.2865,-26.32339 26.2865,-27.17657 0,-2.98091 -14.28123,-28.10943 -16.46187,-28.96548 -1.03444,-0.40608 -3.91074,0.36098 -30.05021,8.0139 l -13.98942,4.0957 -3.23795,-3.27784 c -1.78087,-1.80282 -3.23796,-3.69894 -3.23796,-4.21362 0,-0.51467 2.62303,-10.30593 5.82896,-21.75834 3.20592,-11.45242 5.74173,-21.435398 5.63512,-22.184396 -0.12593,-0.884698 -2.30991,-2.79648 -6.23361,-5.4567 -6.45814,-4.378524 -20.56982,-12.100877 -22.11291,-12.100877 -0.51274,0 -3.07655,2.297672 -5.69736,5.105939 -2.62081,2.808266 -9.66094,10.260617 -15.64474,16.560774 l -10.87963,11.45484 -4.70522,-1.19865 -4.70522,-1.19863 -5.35842,-22.041239 c -2.94713,-12.122677 -5.69731,-22.519205 -6.11152,-23.103396 -0.65741,-0.927193 -2.76059,-1.062161 -16.55115,-1.062161 -10.98525,0 -16.02216,0.229267 -16.5337,0.752576 -0.4046,0.41391 -3.1258,10.519571 -6.04711,22.457017 -2.92131,11.937447 -5.50024,22.016913 -5.73095,22.398803 -0.23072,0.3819 -2.46587,1.20739 -4.967,1.83442 l -4.54751,1.14007 -13.04626,-13.750154 c -7.17544,-7.56258 -14.14935,-15.010161 -15.49758,-16.550178 -1.34823,-1.540017 -3.00445,-2.800031 -3.68049,-2.800031 -2.94153,0 -27.61361,14.57785 -28.48196,16.828969 -0.14588,0.378182 2.44865,10.310054 5.76561,22.070834 3.31697,11.76076 6.03809,21.83805 6.04693,22.39396 0.009,0.55592 -1.5054,2.52653 -3.36499,4.37915 l -3.38107,3.36839 -20.93044,-6.17001 c -11.51174,-3.3935 -21.52104,-6.17942 -22.24288,-6.19093 -0.91041,-0.0145 -2.13091,1.25262 -3.98435,4.13656 -5.26166,8.18711 -11.41208,19.41522 -13.0517,23.82697 -0.6035,1.62385 -1.44774,0.70888 24.66913,26.73625 l 7.60868,7.5826 -1.11652,4.2605 c -0.61409,2.34329 -1.32607,4.51023 -1.58218,4.81544 -0.25611,0.3052 -10.0917,3.02023 -21.85684,6.03338 -11.76515,3.01315 -21.722233,5.81728 -22.126834,6.2314 -0.809003,0.82804 -1.092369,33.15392 -0.29774,33.96631 0.240848,0.24624 10.369394,3.01321 22.507874,6.14881 l 22.06996,5.70111 0.72861,2.96474 c 0.40073,1.6306 0.91617,3.73147 1.14541,4.66859 0.43669,1.78511 0.38908,1.83666 -26.81378,29.03076 l -5.70087,5.69906 3.89487,7.80698 c 3.99272,8.00307 12.52267,21.97184 13.417,21.97184 0.27478,0 10.29994,-2.86314 22.27814,-6.36252 l 21.77854,-6.36253 3.18403,3.20831 c 1.75122,1.76457 3.18403,3.62362 3.18403,4.13122 0,0.50759 -2.76086,10.74709 -6.13525,22.75442 l -6.13526,21.83153 1.78817,1.50139 c 4.05278,3.40284 25.37812,15.95762 27.10534,15.95762 0.29728,0 4.58358,-4.22475 9.52512,-9.38834 4.94153,-5.16358 12.16483,-12.7144 16.05176,-16.77958 l 7.06716,-7.39124 4.43918,1.28146 c 2.44156,0.70481 4.52433,1.36858 4.62841,1.47504 0.10407,0.10647 2.64086,10.2123 5.6373,22.45739 2.99646,12.2451 5.64091,22.46106 5.87656,22.70214 1.01769,1.04111 26.39792,1.41631 31.67397,0.46823 z M 248.5705,322.90237 c -15.90424,-2.93716 -30.92257,-10.80891 -42.93671,-22.50497 -17.2834,-16.82581 -26.33508,-38.37935 -26.32748,-62.69006 0.006,-17.93069 4.453,-33.28219 13.85188,-47.81384 23.40049,-36.1796 69.55828,-49.33421 107.54209,-30.64866 24.93638,12.26708 42.53328,36.38783 47.04911,64.49204 1.30533,8.12373 0.98869,23.95065 -0.62782,31.38087 -2.48198,11.40833 -7.58466,23.33755 -13.94973,32.61212 -4.35445,6.3449 -14.38388,16.5094 -20.56313,20.84007 -10.26404,7.19344 -22.34669,12.27455 -34.07939,14.33139 -7.52425,1.31907 -22.81902,1.31959 -29.95882,0.001 z"
       id="path203"
       inkscape:connector-curvature="0" /></g><text
     xml:space="preserve"
     style="font-style:normal;font-weight:normal;font-size:40.00017548px;line-height:1.25;font-family:sans-serif;letter-spacing:0px;word-spacing:0px;fill:#000000;fill-opacity:1;stroke:none;stroke-width:1.00000441"
     x="583.13788"
     y="182.87131"
     id="text223"><tspan
       sodipodi:role="line"
       id="tspan221"
       x="583.13788"
       y="182.87131"
       style="font-style:normal;font-variant:normal;font-weight:normal;font-stretch:normal;font-size:192.00083923px;font-family:'Agency FB';-inkscape-font-specification:'Agency FB';stroke-width:1.00000441">RETRO EVOLVED </tspan><tspan
       sodipodi:role="line"
       x="583.13788"
       y="422.87234"
       style="font-style:normal;font-variant:normal;font-weight:normal;font-stretch:normal;font-size:192.00083923px;font-family:'Agency FB';-inkscape-font-specification:'Agency FB';stroke-width:1.00000441"
       id="tspan225">SETTINGS</tspan></text>
</svg>